<mxfile host="65bd71144e">
    <diagram id="zaUrqFMK4C-lqB4-PGLN" name="Page-1">
        <mxGraphModel dx="1162" dy="1055" grid="0" gridSize="10" guides="1" tooltips="1" connect="1" arrows="1" fold="1" page="0" pageScale="1" pageWidth="850" pageHeight="1100" background="#ffffff" math="0" shadow="0">
            <root>
                <mxCell id="0"/>
                <mxCell id="1" parent="0"/>
                <mxCell id="42" value="" style="endArrow=none;html=1;fontSize=15;strokeColor=#000000;fontColor=#000000;" parent="1" edge="1">
                    <mxGeometry width="50" height="50" relative="1" as="geometry">
                        <mxPoint x="105" y="205" as="sourcePoint"/>
                        <mxPoint x="155" y="245" as="targetPoint"/>
                    </mxGeometry>
                </mxCell>
                <mxCell id="43" value="" style="endArrow=none;html=1;fontSize=15;strokeColor=#000000;fontColor=#000000;" parent="1" edge="1">
                    <mxGeometry width="50" height="50" relative="1" as="geometry">
                        <mxPoint x="305" y="205" as="sourcePoint"/>
                        <mxPoint x="255" y="245" as="targetPoint"/>
                    </mxGeometry>
                </mxCell>
                <mxCell id="44" value="" style="endArrow=none;html=1;fontSize=15;strokeColor=#000000;fontColor=#000000;" parent="1" edge="1">
                    <mxGeometry width="50" height="50" relative="1" as="geometry">
                        <mxPoint x="305" y="205" as="sourcePoint"/>
                        <mxPoint x="355" y="245" as="targetPoint"/>
                    </mxGeometry>
                </mxCell>
                <mxCell id="48" value="" style="endArrow=none;html=1;fontSize=15;strokeColor=#000000;fontColor=#000000;" parent="1" edge="1">
                    <mxGeometry width="50" height="50" relative="1" as="geometry">
                        <mxPoint x="280" y="295" as="sourcePoint"/>
                        <mxPoint x="255" y="245" as="targetPoint"/>
                    </mxGeometry>
                </mxCell>
                <mxCell id="47" value="" style="endArrow=none;html=1;fontSize=15;strokeColor=#000000;fontColor=#000000;" parent="1" edge="1">
                    <mxGeometry width="50" height="50" relative="1" as="geometry">
                        <mxPoint x="230" y="295" as="sourcePoint"/>
                        <mxPoint x="255" y="245" as="targetPoint"/>
                    </mxGeometry>
                </mxCell>
                <mxCell id="46" value="" style="endArrow=none;html=1;fontSize=15;strokeColor=#000000;fontColor=#000000;" parent="1" edge="1">
                    <mxGeometry width="50" height="50" relative="1" as="geometry">
                        <mxPoint x="180" y="295" as="sourcePoint"/>
                        <mxPoint x="155" y="245" as="targetPoint"/>
                    </mxGeometry>
                </mxCell>
                <mxCell id="45" value="" style="endArrow=none;html=1;fontSize=15;strokeColor=#000000;fontColor=#000000;" parent="1" edge="1">
                    <mxGeometry width="50" height="50" relative="1" as="geometry">
                        <mxPoint x="130" y="295" as="sourcePoint"/>
                        <mxPoint x="155" y="245" as="targetPoint"/>
                    </mxGeometry>
                </mxCell>
                <mxCell id="51" value="" style="endArrow=none;html=1;fontSize=15;strokeColor=#000000;fontColor=#000000;" parent="1" edge="1">
                    <mxGeometry width="50" height="50" relative="1" as="geometry">
                        <mxPoint x="80" y="295" as="sourcePoint"/>
                        <mxPoint x="55" y="245" as="targetPoint"/>
                    </mxGeometry>
                </mxCell>
                <mxCell id="52" value="" style="endArrow=none;html=1;fontSize=15;strokeColor=#000000;fontColor=#000000;" parent="1" edge="1">
                    <mxGeometry width="50" height="50" relative="1" as="geometry">
                        <mxPoint x="30" y="295" as="sourcePoint"/>
                        <mxPoint x="55" y="245" as="targetPoint"/>
                    </mxGeometry>
                </mxCell>
                <mxCell id="41" value="" style="endArrow=none;html=1;fontSize=15;strokeColor=#000000;fontColor=#000000;" parent="1" edge="1">
                    <mxGeometry width="50" height="50" relative="1" as="geometry">
                        <mxPoint x="105" y="205" as="sourcePoint"/>
                        <mxPoint x="55" y="245" as="targetPoint"/>
                    </mxGeometry>
                </mxCell>
                <mxCell id="40" value="" style="endArrow=none;html=1;fontSize=15;strokeColor=#000000;fontColor=#000000;" parent="1" edge="1">
                    <mxGeometry width="50" height="50" relative="1" as="geometry">
                        <mxPoint x="105" y="205" as="sourcePoint"/>
                        <mxPoint x="205" y="175" as="targetPoint"/>
                    </mxGeometry>
                </mxCell>
                <mxCell id="50" value="" style="endArrow=none;html=1;fontSize=15;strokeColor=#000000;fontColor=#000000;" parent="1" edge="1">
                    <mxGeometry width="50" height="50" relative="1" as="geometry">
                        <mxPoint x="305" y="205" as="sourcePoint"/>
                        <mxPoint x="205" y="175" as="targetPoint"/>
                    </mxGeometry>
                </mxCell>
                <mxCell id="17" value="3" style="ellipse;whiteSpace=wrap;html=1;aspect=fixed;fontSize=15;strokeColor=#000000;fontColor=#000000;fillColor=#FFFFFF;" parent="1" vertex="1">
                    <mxGeometry x="90" y="190" width="30" height="30" as="geometry"/>
                </mxCell>
                <mxCell id="18" value="0" style="ellipse;whiteSpace=wrap;html=1;aspect=fixed;fontSize=15;strokeColor=#000000;fillColor=#FFFFFF;fontColor=#000000;" parent="1" vertex="1">
                    <mxGeometry x="190" y="160" width="30" height="30" as="geometry"/>
                </mxCell>
                <mxCell id="19" value="2" style="ellipse;whiteSpace=wrap;html=1;aspect=fixed;fontSize=15;strokeColor=#000000;fontColor=#000000;fillColor=#FFFFFF;" parent="1" vertex="1">
                    <mxGeometry x="290" y="190" width="30" height="30" as="geometry"/>
                </mxCell>
                <mxCell id="20" value="5" style="ellipse;whiteSpace=wrap;html=1;aspect=fixed;fontSize=15;strokeColor=#000000;fontColor=#000000;fillColor=#FFFFFF;" parent="1" vertex="1">
                    <mxGeometry x="40" y="230" width="30" height="30" as="geometry"/>
                </mxCell>
                <mxCell id="24" value="6" style="ellipse;whiteSpace=wrap;html=1;aspect=fixed;fontSize=15;strokeColor=#000000;fontColor=#000000;fillColor=#FFFFFF;" parent="1" vertex="1">
                    <mxGeometry x="140" y="230" width="30" height="30" as="geometry"/>
                </mxCell>
                <mxCell id="25" value="4" style="ellipse;whiteSpace=wrap;html=1;aspect=fixed;fontSize=15;strokeColor=#000000;fontColor=#000000;fillColor=#FFFFFF;" parent="1" vertex="1">
                    <mxGeometry x="240" y="230" width="30" height="30" as="geometry"/>
                </mxCell>
                <mxCell id="26" value="7" style="ellipse;whiteSpace=wrap;html=1;aspect=fixed;fontSize=15;strokeColor=#000000;fontColor=#000000;fillColor=#FFFFFF;" parent="1" vertex="1">
                    <mxGeometry x="340" y="230" width="30" height="30" as="geometry"/>
                </mxCell>
                <mxCell id="27" value="9" style="ellipse;whiteSpace=wrap;html=1;aspect=fixed;fontSize=15;strokeColor=#000000;fontColor=#000000;fillColor=#FFFFFF;" parent="1" vertex="1">
                    <mxGeometry x="15" y="280" width="30" height="30" as="geometry"/>
                </mxCell>
                <mxCell id="28" value="14" style="ellipse;whiteSpace=wrap;html=1;aspect=fixed;fontSize=15;strokeColor=#000000;fontColor=#000000;fillColor=#FFFFFF;" parent="1" vertex="1">
                    <mxGeometry x="65" y="280" width="30" height="30" as="geometry"/>
                </mxCell>
                <mxCell id="29" value="11" style="ellipse;whiteSpace=wrap;html=1;aspect=fixed;fontSize=15;strokeColor=#000000;fontColor=#000000;fillColor=#FFFFFF;" parent="1" vertex="1">
                    <mxGeometry x="115" y="280" width="30" height="30" as="geometry"/>
                </mxCell>
                <mxCell id="30" value="10" style="ellipse;whiteSpace=wrap;html=1;aspect=fixed;fontSize=15;strokeColor=#000000;fontColor=#000000;fillColor=#FFFFFF;" parent="1" vertex="1">
                    <mxGeometry x="165" y="280" width="30" height="30" as="geometry"/>
                </mxCell>
                <mxCell id="31" value="15" style="ellipse;whiteSpace=wrap;html=1;aspect=fixed;fontSize=15;strokeColor=#000000;fontColor=#000000;fillColor=#FFFFFF;" parent="1" vertex="1">
                    <mxGeometry x="215" y="280" width="30" height="30" as="geometry"/>
                </mxCell>
                <mxCell id="32" value="8" style="ellipse;whiteSpace=wrap;html=1;aspect=fixed;fontSize=15;strokeColor=#000000;fontColor=#000000;fillColor=#FFFFFF;" parent="1" vertex="1">
                    <mxGeometry x="265" y="280" width="30" height="30" as="geometry"/>
                </mxCell>
                <mxCell id="56" value="BinaryHeap(PriorityQueue) push&lt;br&gt;&lt;font style=&quot;font-size: 14px;&quot; color=&quot;#808080&quot;&gt;二叉树形式比较直观，实际形式是数组&lt;br&gt;这里展示的是最小堆&lt;br&gt;&lt;/font&gt;" style="text;html=1;strokeColor=#82b366;fillColor=#d5e8d4;align=center;verticalAlign=middle;whiteSpace=wrap;rounded=0;fontSize=15;fontColor=#000000;" parent="1" vertex="1">
                    <mxGeometry x="290" y="-20" width="262" height="70" as="geometry"/>
                </mxCell>
                <mxCell id="57" value="" style="line;strokeWidth=1;html=1;fontColor=#000000;dashed=1;fillColor=#FFFFFF;strokeColor=#FFFFFF;" vertex="1" parent="1">
                    <mxGeometry x="5" y="-50" width="835" height="10" as="geometry"/>
                </mxCell>
                <mxCell id="58" value="" style="line;strokeWidth=1;html=1;fontColor=#000000;dashed=1;strokeColor=#000000;" vertex="1" parent="1">
                    <mxGeometry x="2.5" y="60" width="835" height="10" as="geometry"/>
                </mxCell>
                <mxCell id="59" value="初始状态" style="text;html=1;strokeColor=#6c8ebf;fillColor=#dae8fc;align=center;verticalAlign=middle;whiteSpace=wrap;rounded=0;strokeWidth=1;fontColor=#000000;fontSize=15;" vertex="1" parent="1">
                    <mxGeometry x="5" y="90" width="75" height="30" as="geometry"/>
                </mxCell>
                <mxCell id="60" value="0" style="whiteSpace=wrap;html=1;aspect=fixed;strokeColor=#000000;strokeWidth=1;fontSize=14;fontColor=#000000;fillColor=#FFFFFF;" vertex="1" parent="1">
                    <mxGeometry x="410" y="280" width="30" height="30" as="geometry"/>
                </mxCell>
                <mxCell id="61" value="3" style="whiteSpace=wrap;html=1;aspect=fixed;strokeColor=#000000;strokeWidth=1;fontSize=14;fontColor=#000000;fillColor=#FFFFFF;" vertex="1" parent="1">
                    <mxGeometry x="440" y="280" width="30" height="30" as="geometry"/>
                </mxCell>
                <mxCell id="62" value="2" style="whiteSpace=wrap;html=1;aspect=fixed;strokeColor=#000000;strokeWidth=1;fontSize=14;fontColor=#000000;fillColor=#FFFFFF;" vertex="1" parent="1">
                    <mxGeometry x="470" y="280" width="30" height="30" as="geometry"/>
                </mxCell>
                <mxCell id="63" value="5" style="whiteSpace=wrap;html=1;aspect=fixed;strokeColor=#000000;strokeWidth=1;fontSize=14;fontColor=#000000;fillColor=#FFFFFF;" vertex="1" parent="1">
                    <mxGeometry x="500" y="280" width="30" height="30" as="geometry"/>
                </mxCell>
                <mxCell id="64" value="6" style="whiteSpace=wrap;html=1;aspect=fixed;strokeColor=#000000;strokeWidth=1;fontSize=14;fontColor=#000000;fillColor=#FFFFFF;" vertex="1" parent="1">
                    <mxGeometry x="530" y="280" width="30" height="30" as="geometry"/>
                </mxCell>
                <mxCell id="65" value="4" style="whiteSpace=wrap;html=1;aspect=fixed;strokeColor=#000000;strokeWidth=1;fontSize=14;fontColor=#000000;fillColor=#FFFFFF;" vertex="1" parent="1">
                    <mxGeometry x="560" y="280" width="30" height="30" as="geometry"/>
                </mxCell>
                <mxCell id="66" value="7" style="whiteSpace=wrap;html=1;aspect=fixed;strokeColor=#000000;strokeWidth=1;fontSize=14;fontColor=#000000;fillColor=#FFFFFF;" vertex="1" parent="1">
                    <mxGeometry x="590" y="280" width="30" height="30" as="geometry"/>
                </mxCell>
                <mxCell id="67" value="9" style="whiteSpace=wrap;html=1;aspect=fixed;strokeColor=#000000;strokeWidth=1;fontSize=14;fontColor=#000000;fillColor=#FFFFFF;" vertex="1" parent="1">
                    <mxGeometry x="620" y="280" width="30" height="30" as="geometry"/>
                </mxCell>
                <mxCell id="68" value="14" style="whiteSpace=wrap;html=1;aspect=fixed;strokeColor=#000000;strokeWidth=1;fontSize=14;fontColor=#000000;fillColor=#FFFFFF;" vertex="1" parent="1">
                    <mxGeometry x="650" y="280" width="30" height="30" as="geometry"/>
                </mxCell>
                <mxCell id="69" value="11" style="whiteSpace=wrap;html=1;aspect=fixed;strokeColor=#000000;strokeWidth=1;fontSize=14;fontColor=#000000;fillColor=#FFFFFF;" vertex="1" parent="1">
                    <mxGeometry x="680" y="280" width="30" height="30" as="geometry"/>
                </mxCell>
                <mxCell id="70" value="10" style="whiteSpace=wrap;html=1;aspect=fixed;strokeColor=#000000;strokeWidth=1;fontSize=14;fontColor=#000000;fillColor=#FFFFFF;" vertex="1" parent="1">
                    <mxGeometry x="710" y="280" width="30" height="30" as="geometry"/>
                </mxCell>
                <mxCell id="71" value="15" style="whiteSpace=wrap;html=1;aspect=fixed;strokeColor=#000000;strokeWidth=1;fontSize=14;fontColor=#000000;fillColor=#FFFFFF;" vertex="1" parent="1">
                    <mxGeometry x="740" y="280" width="30" height="30" as="geometry"/>
                </mxCell>
                <mxCell id="72" value="8" style="whiteSpace=wrap;html=1;aspect=fixed;strokeColor=#000000;strokeWidth=1;fontSize=14;fontColor=#000000;fillColor=#FFFFFF;" vertex="1" parent="1">
                    <mxGeometry x="770" y="280" width="30" height="30" as="geometry"/>
                </mxCell>
                <mxCell id="73" value="数组中第 i 个元素的：&lt;br&gt;左儿子：2i+1&lt;br&gt;右儿子：2i+2&lt;br&gt;父亲：(i - 1) // 2" style="text;html=1;strokeColor=#82b366;fillColor=#d5e8d4;align=center;verticalAlign=middle;whiteSpace=wrap;rounded=0;strokeWidth=1;fontSize=15;fontColor=#000000;" vertex="1" parent="1">
                    <mxGeometry x="650" y="90" width="160" height="80" as="geometry"/>
                </mxCell>
                <mxCell id="74" value="" style="line;strokeWidth=1;html=1;fontColor=#000000;dashed=1;strokeColor=#000000;" vertex="1" parent="1">
                    <mxGeometry x="5" y="330" width="835" height="10" as="geometry"/>
                </mxCell>
                <mxCell id="75" value="step1:将新节点添加到队尾" style="text;html=1;strokeColor=#6c8ebf;fillColor=#dae8fc;align=center;verticalAlign=middle;whiteSpace=wrap;rounded=0;strokeWidth=1;fontColor=#000000;fontSize=15;" vertex="1" parent="1">
                    <mxGeometry x="5" y="360" width="185" height="30" as="geometry"/>
                </mxCell>
                <mxCell id="76" value="" style="endArrow=none;html=1;fontSize=15;strokeColor=#000000;fontColor=#000000;" edge="1" parent="1">
                    <mxGeometry width="50" height="50" relative="1" as="geometry">
                        <mxPoint x="105" y="485" as="sourcePoint"/>
                        <mxPoint x="155" y="525" as="targetPoint"/>
                    </mxGeometry>
                </mxCell>
                <mxCell id="77" value="" style="endArrow=none;html=1;fontSize=15;strokeColor=#000000;fontColor=#000000;" edge="1" parent="1">
                    <mxGeometry width="50" height="50" relative="1" as="geometry">
                        <mxPoint x="305" y="485" as="sourcePoint"/>
                        <mxPoint x="255" y="525" as="targetPoint"/>
                    </mxGeometry>
                </mxCell>
                <mxCell id="78" value="" style="endArrow=none;html=1;fontSize=15;strokeColor=#000000;fontColor=#000000;" edge="1" parent="1">
                    <mxGeometry width="50" height="50" relative="1" as="geometry">
                        <mxPoint x="305" y="485" as="sourcePoint"/>
                        <mxPoint x="355" y="525" as="targetPoint"/>
                    </mxGeometry>
                </mxCell>
                <mxCell id="79" value="" style="endArrow=none;html=1;fontSize=15;strokeColor=#000000;fontColor=#000000;" edge="1" parent="1">
                    <mxGeometry width="50" height="50" relative="1" as="geometry">
                        <mxPoint x="330" y="575" as="sourcePoint"/>
                        <mxPoint x="355" y="525" as="targetPoint"/>
                    </mxGeometry>
                </mxCell>
                <mxCell id="80" value="" style="endArrow=none;html=1;fontSize=15;strokeColor=#000000;fontColor=#000000;" edge="1" parent="1">
                    <mxGeometry width="50" height="50" relative="1" as="geometry">
                        <mxPoint x="280" y="575" as="sourcePoint"/>
                        <mxPoint x="255" y="525" as="targetPoint"/>
                    </mxGeometry>
                </mxCell>
                <mxCell id="81" value="" style="endArrow=none;html=1;fontSize=15;strokeColor=#000000;fontColor=#000000;" edge="1" parent="1">
                    <mxGeometry width="50" height="50" relative="1" as="geometry">
                        <mxPoint x="230" y="575" as="sourcePoint"/>
                        <mxPoint x="255" y="525" as="targetPoint"/>
                    </mxGeometry>
                </mxCell>
                <mxCell id="82" value="" style="endArrow=none;html=1;fontSize=15;strokeColor=#000000;fontColor=#000000;" edge="1" parent="1">
                    <mxGeometry width="50" height="50" relative="1" as="geometry">
                        <mxPoint x="180" y="575" as="sourcePoint"/>
                        <mxPoint x="155" y="525" as="targetPoint"/>
                    </mxGeometry>
                </mxCell>
                <mxCell id="83" value="" style="endArrow=none;html=1;fontSize=15;strokeColor=#000000;fontColor=#000000;" edge="1" parent="1">
                    <mxGeometry width="50" height="50" relative="1" as="geometry">
                        <mxPoint x="130" y="575" as="sourcePoint"/>
                        <mxPoint x="155" y="525" as="targetPoint"/>
                    </mxGeometry>
                </mxCell>
                <mxCell id="84" value="" style="endArrow=none;html=1;fontSize=15;strokeColor=#000000;fontColor=#000000;" edge="1" parent="1">
                    <mxGeometry width="50" height="50" relative="1" as="geometry">
                        <mxPoint x="80" y="575" as="sourcePoint"/>
                        <mxPoint x="55" y="525" as="targetPoint"/>
                    </mxGeometry>
                </mxCell>
                <mxCell id="85" value="" style="endArrow=none;html=1;fontSize=15;strokeColor=#000000;fontColor=#000000;" edge="1" parent="1">
                    <mxGeometry width="50" height="50" relative="1" as="geometry">
                        <mxPoint x="30" y="575" as="sourcePoint"/>
                        <mxPoint x="55" y="525" as="targetPoint"/>
                    </mxGeometry>
                </mxCell>
                <mxCell id="86" value="" style="endArrow=none;html=1;fontSize=15;strokeColor=#000000;fontColor=#000000;" edge="1" parent="1">
                    <mxGeometry width="50" height="50" relative="1" as="geometry">
                        <mxPoint x="105" y="485" as="sourcePoint"/>
                        <mxPoint x="55" y="525" as="targetPoint"/>
                    </mxGeometry>
                </mxCell>
                <mxCell id="87" value="" style="endArrow=none;html=1;fontSize=15;strokeColor=#000000;fontColor=#000000;" edge="1" parent="1">
                    <mxGeometry width="50" height="50" relative="1" as="geometry">
                        <mxPoint x="105" y="485" as="sourcePoint"/>
                        <mxPoint x="205" y="455" as="targetPoint"/>
                    </mxGeometry>
                </mxCell>
                <mxCell id="88" value="" style="endArrow=none;html=1;fontSize=15;strokeColor=#000000;fontColor=#000000;" edge="1" parent="1">
                    <mxGeometry width="50" height="50" relative="1" as="geometry">
                        <mxPoint x="305" y="485" as="sourcePoint"/>
                        <mxPoint x="205" y="455" as="targetPoint"/>
                    </mxGeometry>
                </mxCell>
                <mxCell id="89" value="3" style="ellipse;whiteSpace=wrap;html=1;aspect=fixed;fontSize=15;strokeColor=#000000;fontColor=#000000;fillColor=#FFFFFF;" vertex="1" parent="1">
                    <mxGeometry x="90" y="470" width="30" height="30" as="geometry"/>
                </mxCell>
                <mxCell id="90" value="0" style="ellipse;whiteSpace=wrap;html=1;aspect=fixed;fontSize=15;strokeColor=#000000;fillColor=#FFFFFF;fontColor=#000000;" vertex="1" parent="1">
                    <mxGeometry x="190" y="440" width="30" height="30" as="geometry"/>
                </mxCell>
                <mxCell id="91" value="2" style="ellipse;whiteSpace=wrap;html=1;aspect=fixed;fontSize=15;strokeColor=#000000;fontColor=#000000;fillColor=#FFFFFF;" vertex="1" parent="1">
                    <mxGeometry x="290" y="470" width="30" height="30" as="geometry"/>
                </mxCell>
                <mxCell id="92" value="5" style="ellipse;whiteSpace=wrap;html=1;aspect=fixed;fontSize=15;strokeColor=#000000;fontColor=#000000;fillColor=#FFFFFF;" vertex="1" parent="1">
                    <mxGeometry x="40" y="510" width="30" height="30" as="geometry"/>
                </mxCell>
                <mxCell id="93" value="6" style="ellipse;whiteSpace=wrap;html=1;aspect=fixed;fontSize=15;strokeColor=#000000;fontColor=#000000;fillColor=#FFFFFF;" vertex="1" parent="1">
                    <mxGeometry x="140" y="510" width="30" height="30" as="geometry"/>
                </mxCell>
                <mxCell id="94" value="4" style="ellipse;whiteSpace=wrap;html=1;aspect=fixed;fontSize=15;strokeColor=#000000;fontColor=#000000;fillColor=#FFFFFF;" vertex="1" parent="1">
                    <mxGeometry x="240" y="510" width="30" height="30" as="geometry"/>
                </mxCell>
                <mxCell id="95" value="7" style="ellipse;whiteSpace=wrap;html=1;aspect=fixed;fontSize=15;strokeColor=#000000;fontColor=#000000;fillColor=#FFFFFF;" vertex="1" parent="1">
                    <mxGeometry x="340" y="510" width="30" height="30" as="geometry"/>
                </mxCell>
                <mxCell id="96" value="9" style="ellipse;whiteSpace=wrap;html=1;aspect=fixed;fontSize=15;strokeColor=#000000;fontColor=#000000;fillColor=#FFFFFF;" vertex="1" parent="1">
                    <mxGeometry x="15" y="560" width="30" height="30" as="geometry"/>
                </mxCell>
                <mxCell id="97" value="14" style="ellipse;whiteSpace=wrap;html=1;aspect=fixed;fontSize=15;strokeColor=#000000;fontColor=#000000;fillColor=#FFFFFF;" vertex="1" parent="1">
                    <mxGeometry x="65" y="560" width="30" height="30" as="geometry"/>
                </mxCell>
                <mxCell id="98" value="11" style="ellipse;whiteSpace=wrap;html=1;aspect=fixed;fontSize=15;strokeColor=#000000;fontColor=#000000;fillColor=#FFFFFF;" vertex="1" parent="1">
                    <mxGeometry x="115" y="560" width="30" height="30" as="geometry"/>
                </mxCell>
                <mxCell id="99" value="10" style="ellipse;whiteSpace=wrap;html=1;aspect=fixed;fontSize=15;strokeColor=#000000;fontColor=#000000;fillColor=#FFFFFF;" vertex="1" parent="1">
                    <mxGeometry x="165" y="560" width="30" height="30" as="geometry"/>
                </mxCell>
                <mxCell id="100" value="15" style="ellipse;whiteSpace=wrap;html=1;aspect=fixed;fontSize=15;strokeColor=#000000;fontColor=#000000;fillColor=#FFFFFF;" vertex="1" parent="1">
                    <mxGeometry x="215" y="560" width="30" height="30" as="geometry"/>
                </mxCell>
                <mxCell id="101" value="8" style="ellipse;whiteSpace=wrap;html=1;aspect=fixed;fontSize=15;strokeColor=#000000;fontColor=#000000;fillColor=#FFFFFF;" vertex="1" parent="1">
                    <mxGeometry x="265" y="560" width="30" height="30" as="geometry"/>
                </mxCell>
                <mxCell id="102" value="1" style="ellipse;whiteSpace=wrap;html=1;aspect=fixed;fontSize=15;strokeColor=#000000;fillColor=#FF6666;fontColor=#000000;" vertex="1" parent="1">
                    <mxGeometry x="315" y="560" width="30" height="30" as="geometry"/>
                </mxCell>
                <mxCell id="103" value="0" style="whiteSpace=wrap;html=1;aspect=fixed;strokeColor=#000000;strokeWidth=1;fontSize=14;fontColor=#000000;fillColor=#FFFFFF;" vertex="1" parent="1">
                    <mxGeometry x="410" y="560" width="30" height="30" as="geometry"/>
                </mxCell>
                <mxCell id="104" value="3" style="whiteSpace=wrap;html=1;aspect=fixed;strokeColor=#000000;strokeWidth=1;fontSize=14;fontColor=#000000;fillColor=#FFFFFF;" vertex="1" parent="1">
                    <mxGeometry x="440" y="560" width="30" height="30" as="geometry"/>
                </mxCell>
                <mxCell id="105" value="2" style="whiteSpace=wrap;html=1;aspect=fixed;strokeColor=#000000;strokeWidth=1;fontSize=14;fontColor=#000000;fillColor=#FFFFFF;" vertex="1" parent="1">
                    <mxGeometry x="470" y="560" width="30" height="30" as="geometry"/>
                </mxCell>
                <mxCell id="106" value="5" style="whiteSpace=wrap;html=1;aspect=fixed;strokeColor=#000000;strokeWidth=1;fontSize=14;fontColor=#000000;fillColor=#FFFFFF;" vertex="1" parent="1">
                    <mxGeometry x="500" y="560" width="30" height="30" as="geometry"/>
                </mxCell>
                <mxCell id="107" value="6" style="whiteSpace=wrap;html=1;aspect=fixed;strokeColor=#000000;strokeWidth=1;fontSize=14;fontColor=#000000;fillColor=#FFFFFF;" vertex="1" parent="1">
                    <mxGeometry x="530" y="560" width="30" height="30" as="geometry"/>
                </mxCell>
                <mxCell id="108" value="4" style="whiteSpace=wrap;html=1;aspect=fixed;strokeColor=#000000;strokeWidth=1;fontSize=14;fontColor=#000000;fillColor=#FFFFFF;" vertex="1" parent="1">
                    <mxGeometry x="560" y="560" width="30" height="30" as="geometry"/>
                </mxCell>
                <mxCell id="109" value="7" style="whiteSpace=wrap;html=1;aspect=fixed;strokeColor=#000000;strokeWidth=1;fontSize=14;fontColor=#000000;fillColor=#FFFFFF;" vertex="1" parent="1">
                    <mxGeometry x="590" y="560" width="30" height="30" as="geometry"/>
                </mxCell>
                <mxCell id="110" value="9" style="whiteSpace=wrap;html=1;aspect=fixed;strokeColor=#000000;strokeWidth=1;fontSize=14;fontColor=#000000;fillColor=#FFFFFF;" vertex="1" parent="1">
                    <mxGeometry x="620" y="560" width="30" height="30" as="geometry"/>
                </mxCell>
                <mxCell id="111" value="14" style="whiteSpace=wrap;html=1;aspect=fixed;strokeColor=#000000;strokeWidth=1;fontSize=14;fontColor=#000000;fillColor=#FFFFFF;" vertex="1" parent="1">
                    <mxGeometry x="650" y="560" width="30" height="30" as="geometry"/>
                </mxCell>
                <mxCell id="112" value="11" style="whiteSpace=wrap;html=1;aspect=fixed;strokeColor=#000000;strokeWidth=1;fontSize=14;fontColor=#000000;fillColor=#FFFFFF;" vertex="1" parent="1">
                    <mxGeometry x="680" y="560" width="30" height="30" as="geometry"/>
                </mxCell>
                <mxCell id="113" value="10" style="whiteSpace=wrap;html=1;aspect=fixed;strokeColor=#000000;strokeWidth=1;fontSize=14;fontColor=#000000;fillColor=#FFFFFF;" vertex="1" parent="1">
                    <mxGeometry x="710" y="560" width="30" height="30" as="geometry"/>
                </mxCell>
                <mxCell id="114" value="15" style="whiteSpace=wrap;html=1;aspect=fixed;strokeColor=#000000;strokeWidth=1;fontSize=14;fontColor=#000000;fillColor=#FFFFFF;" vertex="1" parent="1">
                    <mxGeometry x="740" y="560" width="30" height="30" as="geometry"/>
                </mxCell>
                <mxCell id="115" value="8" style="whiteSpace=wrap;html=1;aspect=fixed;strokeColor=#000000;strokeWidth=1;fontSize=14;fontColor=#000000;fillColor=#FFFFFF;" vertex="1" parent="1">
                    <mxGeometry x="770" y="560" width="30" height="30" as="geometry"/>
                </mxCell>
                <mxCell id="116" value="1" style="whiteSpace=wrap;html=1;aspect=fixed;strokeColor=#000000;strokeWidth=1;fontSize=14;fillColor=#FF6666;fontColor=#000000;" vertex="1" parent="1">
                    <mxGeometry x="800" y="560" width="30" height="30" as="geometry"/>
                </mxCell>
                <mxCell id="117" value="" style="line;strokeWidth=1;html=1;fontColor=#000000;dashed=1;strokeColor=#000000;" vertex="1" parent="1">
                    <mxGeometry x="2.5" y="620" width="835" height="10" as="geometry"/>
                </mxCell>
                <mxCell id="118" value="step2:若新节点小于父节点的值，则bubble up" style="text;html=1;strokeColor=#6c8ebf;fillColor=#dae8fc;align=center;verticalAlign=middle;whiteSpace=wrap;rounded=0;strokeWidth=1;fontColor=#000000;fontSize=15;" vertex="1" parent="1">
                    <mxGeometry x="2.5" y="650" width="207.5" height="50" as="geometry"/>
                </mxCell>
                <mxCell id="160" value="" style="endArrow=none;html=1;fontSize=15;strokeColor=#000000;fontColor=#000000;" edge="1" parent="1">
                    <mxGeometry width="50" height="50" relative="1" as="geometry">
                        <mxPoint x="105" y="807" as="sourcePoint"/>
                        <mxPoint x="155" y="847" as="targetPoint"/>
                    </mxGeometry>
                </mxCell>
                <mxCell id="161" value="" style="endArrow=none;html=1;fontSize=15;strokeColor=#000000;fontColor=#000000;" edge="1" parent="1">
                    <mxGeometry width="50" height="50" relative="1" as="geometry">
                        <mxPoint x="305" y="807" as="sourcePoint"/>
                        <mxPoint x="255" y="847" as="targetPoint"/>
                    </mxGeometry>
                </mxCell>
                <mxCell id="162" value="" style="endArrow=none;html=1;fontSize=15;strokeColor=#000000;fontColor=#000000;" edge="1" parent="1">
                    <mxGeometry width="50" height="50" relative="1" as="geometry">
                        <mxPoint x="305" y="807" as="sourcePoint"/>
                        <mxPoint x="355" y="847" as="targetPoint"/>
                    </mxGeometry>
                </mxCell>
                <mxCell id="163" value="" style="endArrow=none;html=1;fontSize=15;strokeColor=#000000;fontColor=#000000;" edge="1" parent="1">
                    <mxGeometry width="50" height="50" relative="1" as="geometry">
                        <mxPoint x="330" y="897" as="sourcePoint"/>
                        <mxPoint x="355" y="847" as="targetPoint"/>
                    </mxGeometry>
                </mxCell>
                <mxCell id="164" value="" style="endArrow=none;html=1;fontSize=15;strokeColor=#000000;fontColor=#000000;" edge="1" parent="1">
                    <mxGeometry width="50" height="50" relative="1" as="geometry">
                        <mxPoint x="280" y="897" as="sourcePoint"/>
                        <mxPoint x="255" y="847" as="targetPoint"/>
                    </mxGeometry>
                </mxCell>
                <mxCell id="165" value="" style="endArrow=none;html=1;fontSize=15;strokeColor=#000000;fontColor=#000000;" edge="1" parent="1">
                    <mxGeometry width="50" height="50" relative="1" as="geometry">
                        <mxPoint x="230" y="897" as="sourcePoint"/>
                        <mxPoint x="255" y="847" as="targetPoint"/>
                    </mxGeometry>
                </mxCell>
                <mxCell id="166" value="" style="endArrow=none;html=1;fontSize=15;strokeColor=#000000;fontColor=#000000;" edge="1" parent="1">
                    <mxGeometry width="50" height="50" relative="1" as="geometry">
                        <mxPoint x="180" y="897" as="sourcePoint"/>
                        <mxPoint x="155" y="847" as="targetPoint"/>
                    </mxGeometry>
                </mxCell>
                <mxCell id="167" value="" style="endArrow=none;html=1;fontSize=15;strokeColor=#000000;fontColor=#000000;" edge="1" parent="1">
                    <mxGeometry width="50" height="50" relative="1" as="geometry">
                        <mxPoint x="130" y="897" as="sourcePoint"/>
                        <mxPoint x="155" y="847" as="targetPoint"/>
                    </mxGeometry>
                </mxCell>
                <mxCell id="168" value="" style="endArrow=none;html=1;fontSize=15;strokeColor=#000000;fontColor=#000000;" edge="1" parent="1">
                    <mxGeometry width="50" height="50" relative="1" as="geometry">
                        <mxPoint x="80" y="897" as="sourcePoint"/>
                        <mxPoint x="55" y="847" as="targetPoint"/>
                    </mxGeometry>
                </mxCell>
                <mxCell id="169" value="" style="endArrow=none;html=1;fontSize=15;strokeColor=#000000;fontColor=#000000;" edge="1" parent="1">
                    <mxGeometry width="50" height="50" relative="1" as="geometry">
                        <mxPoint x="30" y="897" as="sourcePoint"/>
                        <mxPoint x="55" y="847" as="targetPoint"/>
                    </mxGeometry>
                </mxCell>
                <mxCell id="170" value="" style="endArrow=none;html=1;fontSize=15;strokeColor=#000000;fontColor=#000000;" edge="1" parent="1">
                    <mxGeometry width="50" height="50" relative="1" as="geometry">
                        <mxPoint x="105" y="807" as="sourcePoint"/>
                        <mxPoint x="55" y="847" as="targetPoint"/>
                    </mxGeometry>
                </mxCell>
                <mxCell id="171" value="" style="endArrow=none;html=1;fontSize=15;strokeColor=#000000;fontColor=#000000;" edge="1" parent="1">
                    <mxGeometry width="50" height="50" relative="1" as="geometry">
                        <mxPoint x="105" y="807" as="sourcePoint"/>
                        <mxPoint x="205" y="777" as="targetPoint"/>
                    </mxGeometry>
                </mxCell>
                <mxCell id="172" value="" style="endArrow=none;html=1;fontSize=15;strokeColor=#000000;fontColor=#000000;" edge="1" parent="1">
                    <mxGeometry width="50" height="50" relative="1" as="geometry">
                        <mxPoint x="305" y="807" as="sourcePoint"/>
                        <mxPoint x="205" y="777" as="targetPoint"/>
                    </mxGeometry>
                </mxCell>
                <mxCell id="173" value="3" style="ellipse;whiteSpace=wrap;html=1;aspect=fixed;fontSize=15;strokeColor=#000000;fontColor=#000000;fillColor=#FFFFFF;" vertex="1" parent="1">
                    <mxGeometry x="90" y="792" width="30" height="30" as="geometry"/>
                </mxCell>
                <mxCell id="174" value="0" style="ellipse;whiteSpace=wrap;html=1;aspect=fixed;fontSize=15;strokeColor=#000000;fillColor=#FFFFFF;fontColor=#000000;" vertex="1" parent="1">
                    <mxGeometry x="190" y="762" width="30" height="30" as="geometry"/>
                </mxCell>
                <mxCell id="175" value="2" style="ellipse;whiteSpace=wrap;html=1;aspect=fixed;fontSize=15;strokeColor=#000000;fontColor=#000000;fillColor=#FFFFFF;" vertex="1" parent="1">
                    <mxGeometry x="290" y="792" width="30" height="30" as="geometry"/>
                </mxCell>
                <mxCell id="176" value="5" style="ellipse;whiteSpace=wrap;html=1;aspect=fixed;fontSize=15;strokeColor=#000000;fontColor=#000000;fillColor=#FFFFFF;" vertex="1" parent="1">
                    <mxGeometry x="40" y="832" width="30" height="30" as="geometry"/>
                </mxCell>
                <mxCell id="177" value="6" style="ellipse;whiteSpace=wrap;html=1;aspect=fixed;fontSize=15;strokeColor=#000000;fontColor=#000000;fillColor=#FFFFFF;" vertex="1" parent="1">
                    <mxGeometry x="140" y="832" width="30" height="30" as="geometry"/>
                </mxCell>
                <mxCell id="178" value="4" style="ellipse;whiteSpace=wrap;html=1;aspect=fixed;fontSize=15;strokeColor=#000000;fontColor=#000000;fillColor=#FFFFFF;" vertex="1" parent="1">
                    <mxGeometry x="240" y="832" width="30" height="30" as="geometry"/>
                </mxCell>
                <mxCell id="179" value="7" style="ellipse;whiteSpace=wrap;html=1;aspect=fixed;fontSize=15;strokeColor=#000000;fontColor=#000000;fillColor=#990000;" vertex="1" parent="1">
                    <mxGeometry x="340" y="832" width="30" height="30" as="geometry"/>
                </mxCell>
                <mxCell id="180" value="9" style="ellipse;whiteSpace=wrap;html=1;aspect=fixed;fontSize=15;strokeColor=#000000;fontColor=#000000;fillColor=#FFFFFF;" vertex="1" parent="1">
                    <mxGeometry x="15" y="882" width="30" height="30" as="geometry"/>
                </mxCell>
                <mxCell id="181" value="14" style="ellipse;whiteSpace=wrap;html=1;aspect=fixed;fontSize=15;strokeColor=#000000;fontColor=#000000;fillColor=#FFFFFF;" vertex="1" parent="1">
                    <mxGeometry x="65" y="882" width="30" height="30" as="geometry"/>
                </mxCell>
                <mxCell id="182" value="11" style="ellipse;whiteSpace=wrap;html=1;aspect=fixed;fontSize=15;strokeColor=#000000;fontColor=#000000;fillColor=#FFFFFF;" vertex="1" parent="1">
                    <mxGeometry x="115" y="882" width="30" height="30" as="geometry"/>
                </mxCell>
                <mxCell id="183" value="10" style="ellipse;whiteSpace=wrap;html=1;aspect=fixed;fontSize=15;strokeColor=#000000;fontColor=#000000;fillColor=#FFFFFF;" vertex="1" parent="1">
                    <mxGeometry x="165" y="882" width="30" height="30" as="geometry"/>
                </mxCell>
                <mxCell id="184" value="15" style="ellipse;whiteSpace=wrap;html=1;aspect=fixed;fontSize=15;strokeColor=#000000;fontColor=#000000;fillColor=#FFFFFF;" vertex="1" parent="1">
                    <mxGeometry x="215" y="882" width="30" height="30" as="geometry"/>
                </mxCell>
                <mxCell id="185" value="8" style="ellipse;whiteSpace=wrap;html=1;aspect=fixed;fontSize=15;strokeColor=#000000;fontColor=#000000;fillColor=#FFFFFF;" vertex="1" parent="1">
                    <mxGeometry x="265" y="882" width="30" height="30" as="geometry"/>
                </mxCell>
                <mxCell id="186" value="1" style="ellipse;whiteSpace=wrap;html=1;aspect=fixed;fontSize=15;strokeColor=#000000;fillColor=#FF6666;fontColor=#000000;" vertex="1" parent="1">
                    <mxGeometry x="315" y="882" width="30" height="30" as="geometry"/>
                </mxCell>
                <mxCell id="187" value="0" style="whiteSpace=wrap;html=1;aspect=fixed;strokeColor=#000000;strokeWidth=1;fontSize=14;fontColor=#000000;fillColor=#FFFFFF;" vertex="1" parent="1">
                    <mxGeometry x="410" y="882" width="30" height="30" as="geometry"/>
                </mxCell>
                <mxCell id="188" value="3" style="whiteSpace=wrap;html=1;aspect=fixed;strokeColor=#000000;strokeWidth=1;fontSize=14;fontColor=#000000;fillColor=#FFFFFF;" vertex="1" parent="1">
                    <mxGeometry x="440" y="882" width="30" height="30" as="geometry"/>
                </mxCell>
                <mxCell id="189" value="2" style="whiteSpace=wrap;html=1;aspect=fixed;strokeColor=#000000;strokeWidth=1;fontSize=14;fontColor=#000000;fillColor=#FFFFFF;" vertex="1" parent="1">
                    <mxGeometry x="470" y="882" width="30" height="30" as="geometry"/>
                </mxCell>
                <mxCell id="190" value="5" style="whiteSpace=wrap;html=1;aspect=fixed;strokeColor=#000000;strokeWidth=1;fontSize=14;fontColor=#000000;fillColor=#FFFFFF;" vertex="1" parent="1">
                    <mxGeometry x="500" y="882" width="30" height="30" as="geometry"/>
                </mxCell>
                <mxCell id="191" value="6" style="whiteSpace=wrap;html=1;aspect=fixed;strokeColor=#000000;strokeWidth=1;fontSize=14;fontColor=#000000;fillColor=#FFFFFF;" vertex="1" parent="1">
                    <mxGeometry x="530" y="882" width="30" height="30" as="geometry"/>
                </mxCell>
                <mxCell id="192" value="4" style="whiteSpace=wrap;html=1;aspect=fixed;strokeColor=#000000;strokeWidth=1;fontSize=14;fontColor=#000000;fillColor=#FFFFFF;" vertex="1" parent="1">
                    <mxGeometry x="560" y="882" width="30" height="30" as="geometry"/>
                </mxCell>
                <mxCell id="193" value="7" style="whiteSpace=wrap;html=1;aspect=fixed;strokeColor=#000000;strokeWidth=1;fontSize=14;fontColor=#000000;fillColor=#990000;" vertex="1" parent="1">
                    <mxGeometry x="590" y="882" width="30" height="30" as="geometry"/>
                </mxCell>
                <mxCell id="194" value="9" style="whiteSpace=wrap;html=1;aspect=fixed;strokeColor=#000000;strokeWidth=1;fontSize=14;fontColor=#000000;fillColor=#FFFFFF;" vertex="1" parent="1">
                    <mxGeometry x="620" y="882" width="30" height="30" as="geometry"/>
                </mxCell>
                <mxCell id="195" value="14" style="whiteSpace=wrap;html=1;aspect=fixed;strokeColor=#000000;strokeWidth=1;fontSize=14;fontColor=#000000;fillColor=#FFFFFF;" vertex="1" parent="1">
                    <mxGeometry x="650" y="882" width="30" height="30" as="geometry"/>
                </mxCell>
                <mxCell id="196" value="11" style="whiteSpace=wrap;html=1;aspect=fixed;strokeColor=#000000;strokeWidth=1;fontSize=14;fontColor=#000000;fillColor=#FFFFFF;" vertex="1" parent="1">
                    <mxGeometry x="680" y="882" width="30" height="30" as="geometry"/>
                </mxCell>
                <mxCell id="197" value="10" style="whiteSpace=wrap;html=1;aspect=fixed;strokeColor=#000000;strokeWidth=1;fontSize=14;fontColor=#000000;fillColor=#FFFFFF;" vertex="1" parent="1">
                    <mxGeometry x="710" y="882" width="30" height="30" as="geometry"/>
                </mxCell>
                <mxCell id="198" value="15" style="whiteSpace=wrap;html=1;aspect=fixed;strokeColor=#000000;strokeWidth=1;fontSize=14;fontColor=#000000;fillColor=#FFFFFF;" vertex="1" parent="1">
                    <mxGeometry x="740" y="882" width="30" height="30" as="geometry"/>
                </mxCell>
                <mxCell id="199" value="8" style="whiteSpace=wrap;html=1;aspect=fixed;strokeColor=#000000;strokeWidth=1;fontSize=14;fontColor=#000000;fillColor=#FFFFFF;" vertex="1" parent="1">
                    <mxGeometry x="770" y="882" width="30" height="30" as="geometry"/>
                </mxCell>
                <mxCell id="200" value="1" style="whiteSpace=wrap;html=1;aspect=fixed;strokeColor=#000000;strokeWidth=1;fontSize=14;fillColor=#FF6666;fontColor=#000000;" vertex="1" parent="1">
                    <mxGeometry x="800" y="882" width="30" height="30" as="geometry"/>
                </mxCell>
                <mxCell id="201" value="bubble up" style="endArrow=classic;html=1;strokeColor=#000000;fontSize=15;fontColor=#000000;labelBackgroundColor=#FFFFFF;" edge="1" parent="1">
                    <mxGeometry width="50" height="50" relative="1" as="geometry">
                        <mxPoint x="380" y="930" as="sourcePoint"/>
                        <mxPoint x="380" y="1040" as="targetPoint"/>
                    </mxGeometry>
                </mxCell>
                <mxCell id="202" value="" style="endArrow=none;html=1;fontSize=15;strokeColor=#000000;fontColor=#000000;" edge="1" parent="1">
                    <mxGeometry width="50" height="50" relative="1" as="geometry">
                        <mxPoint x="105" y="1065" as="sourcePoint"/>
                        <mxPoint x="155" y="1105" as="targetPoint"/>
                    </mxGeometry>
                </mxCell>
                <mxCell id="203" value="" style="endArrow=none;html=1;fontSize=15;strokeColor=#000000;fontColor=#000000;" edge="1" parent="1">
                    <mxGeometry width="50" height="50" relative="1" as="geometry">
                        <mxPoint x="305" y="1065" as="sourcePoint"/>
                        <mxPoint x="255" y="1105" as="targetPoint"/>
                    </mxGeometry>
                </mxCell>
                <mxCell id="204" value="" style="endArrow=none;html=1;fontSize=15;strokeColor=#000000;fontColor=#000000;" edge="1" parent="1">
                    <mxGeometry width="50" height="50" relative="1" as="geometry">
                        <mxPoint x="305" y="1065" as="sourcePoint"/>
                        <mxPoint x="355" y="1105" as="targetPoint"/>
                    </mxGeometry>
                </mxCell>
                <mxCell id="205" value="" style="endArrow=none;html=1;fontSize=15;strokeColor=#000000;fontColor=#000000;" edge="1" parent="1">
                    <mxGeometry width="50" height="50" relative="1" as="geometry">
                        <mxPoint x="330" y="1155" as="sourcePoint"/>
                        <mxPoint x="355" y="1105" as="targetPoint"/>
                    </mxGeometry>
                </mxCell>
                <mxCell id="206" value="" style="endArrow=none;html=1;fontSize=15;strokeColor=#000000;fontColor=#000000;" edge="1" parent="1">
                    <mxGeometry width="50" height="50" relative="1" as="geometry">
                        <mxPoint x="280" y="1155" as="sourcePoint"/>
                        <mxPoint x="255" y="1105" as="targetPoint"/>
                    </mxGeometry>
                </mxCell>
                <mxCell id="207" value="" style="endArrow=none;html=1;fontSize=15;strokeColor=#000000;fontColor=#000000;" edge="1" parent="1">
                    <mxGeometry width="50" height="50" relative="1" as="geometry">
                        <mxPoint x="230" y="1155" as="sourcePoint"/>
                        <mxPoint x="255" y="1105" as="targetPoint"/>
                    </mxGeometry>
                </mxCell>
                <mxCell id="208" value="" style="endArrow=none;html=1;fontSize=15;strokeColor=#000000;fontColor=#000000;" edge="1" parent="1">
                    <mxGeometry width="50" height="50" relative="1" as="geometry">
                        <mxPoint x="180" y="1155" as="sourcePoint"/>
                        <mxPoint x="155" y="1105" as="targetPoint"/>
                    </mxGeometry>
                </mxCell>
                <mxCell id="209" value="" style="endArrow=none;html=1;fontSize=15;strokeColor=#000000;fontColor=#000000;" edge="1" parent="1">
                    <mxGeometry width="50" height="50" relative="1" as="geometry">
                        <mxPoint x="130" y="1155" as="sourcePoint"/>
                        <mxPoint x="155" y="1105" as="targetPoint"/>
                    </mxGeometry>
                </mxCell>
                <mxCell id="210" value="" style="endArrow=none;html=1;fontSize=15;strokeColor=#000000;fontColor=#000000;" edge="1" parent="1">
                    <mxGeometry width="50" height="50" relative="1" as="geometry">
                        <mxPoint x="80" y="1155" as="sourcePoint"/>
                        <mxPoint x="55" y="1105" as="targetPoint"/>
                    </mxGeometry>
                </mxCell>
                <mxCell id="211" value="" style="endArrow=none;html=1;fontSize=15;strokeColor=#000000;fontColor=#000000;" edge="1" parent="1">
                    <mxGeometry width="50" height="50" relative="1" as="geometry">
                        <mxPoint x="30" y="1155" as="sourcePoint"/>
                        <mxPoint x="55" y="1105" as="targetPoint"/>
                    </mxGeometry>
                </mxCell>
                <mxCell id="212" value="" style="endArrow=none;html=1;fontSize=15;strokeColor=#000000;fontColor=#000000;" edge="1" parent="1">
                    <mxGeometry width="50" height="50" relative="1" as="geometry">
                        <mxPoint x="105" y="1065" as="sourcePoint"/>
                        <mxPoint x="55" y="1105" as="targetPoint"/>
                    </mxGeometry>
                </mxCell>
                <mxCell id="213" value="" style="endArrow=none;html=1;fontSize=15;strokeColor=#000000;fontColor=#000000;" edge="1" parent="1">
                    <mxGeometry width="50" height="50" relative="1" as="geometry">
                        <mxPoint x="105" y="1065" as="sourcePoint"/>
                        <mxPoint x="205" y="1035" as="targetPoint"/>
                    </mxGeometry>
                </mxCell>
                <mxCell id="214" value="" style="endArrow=none;html=1;fontSize=15;strokeColor=#000000;fontColor=#000000;" edge="1" parent="1">
                    <mxGeometry width="50" height="50" relative="1" as="geometry">
                        <mxPoint x="305" y="1065" as="sourcePoint"/>
                        <mxPoint x="205" y="1035" as="targetPoint"/>
                    </mxGeometry>
                </mxCell>
                <mxCell id="215" value="3" style="ellipse;whiteSpace=wrap;html=1;aspect=fixed;fontSize=15;strokeColor=#000000;fontColor=#000000;fillColor=#FFFFFF;" vertex="1" parent="1">
                    <mxGeometry x="90" y="1050" width="30" height="30" as="geometry"/>
                </mxCell>
                <mxCell id="216" value="0" style="ellipse;whiteSpace=wrap;html=1;aspect=fixed;fontSize=15;strokeColor=#000000;fillColor=#FFFFFF;fontColor=#000000;" vertex="1" parent="1">
                    <mxGeometry x="190" y="1020" width="30" height="30" as="geometry"/>
                </mxCell>
                <mxCell id="217" value="2" style="ellipse;whiteSpace=wrap;html=1;aspect=fixed;fontSize=15;strokeColor=#000000;fontColor=#000000;fillColor=#FF0000;" vertex="1" parent="1">
                    <mxGeometry x="290" y="1050" width="30" height="30" as="geometry"/>
                </mxCell>
                <mxCell id="218" value="5" style="ellipse;whiteSpace=wrap;html=1;aspect=fixed;fontSize=15;strokeColor=#000000;fontColor=#000000;fillColor=#FFFFFF;" vertex="1" parent="1">
                    <mxGeometry x="40" y="1090" width="30" height="30" as="geometry"/>
                </mxCell>
                <mxCell id="219" value="6" style="ellipse;whiteSpace=wrap;html=1;aspect=fixed;fontSize=15;strokeColor=#000000;fontColor=#000000;fillColor=#FFFFFF;" vertex="1" parent="1">
                    <mxGeometry x="140" y="1090" width="30" height="30" as="geometry"/>
                </mxCell>
                <mxCell id="220" value="4" style="ellipse;whiteSpace=wrap;html=1;aspect=fixed;fontSize=15;strokeColor=#000000;fontColor=#000000;fillColor=#FFFFFF;" vertex="1" parent="1">
                    <mxGeometry x="240" y="1090" width="30" height="30" as="geometry"/>
                </mxCell>
                <mxCell id="221" value="1" style="ellipse;whiteSpace=wrap;html=1;aspect=fixed;fontSize=15;strokeColor=#000000;fillColor=#FF6666;fontColor=#000000;" vertex="1" parent="1">
                    <mxGeometry x="340" y="1090" width="30" height="30" as="geometry"/>
                </mxCell>
                <mxCell id="222" value="9" style="ellipse;whiteSpace=wrap;html=1;aspect=fixed;fontSize=15;strokeColor=#000000;fontColor=#000000;fillColor=#FFFFFF;" vertex="1" parent="1">
                    <mxGeometry x="15" y="1140" width="30" height="30" as="geometry"/>
                </mxCell>
                <mxCell id="223" value="14" style="ellipse;whiteSpace=wrap;html=1;aspect=fixed;fontSize=15;strokeColor=#000000;fontColor=#000000;fillColor=#FFFFFF;" vertex="1" parent="1">
                    <mxGeometry x="65" y="1140" width="30" height="30" as="geometry"/>
                </mxCell>
                <mxCell id="224" value="11" style="ellipse;whiteSpace=wrap;html=1;aspect=fixed;fontSize=15;strokeColor=#000000;fontColor=#000000;fillColor=#FFFFFF;" vertex="1" parent="1">
                    <mxGeometry x="115" y="1140" width="30" height="30" as="geometry"/>
                </mxCell>
                <mxCell id="225" value="10" style="ellipse;whiteSpace=wrap;html=1;aspect=fixed;fontSize=15;strokeColor=#000000;fontColor=#000000;fillColor=#FFFFFF;" vertex="1" parent="1">
                    <mxGeometry x="165" y="1140" width="30" height="30" as="geometry"/>
                </mxCell>
                <mxCell id="226" value="15" style="ellipse;whiteSpace=wrap;html=1;aspect=fixed;fontSize=15;strokeColor=#000000;fontColor=#000000;fillColor=#FFFFFF;" vertex="1" parent="1">
                    <mxGeometry x="215" y="1140" width="30" height="30" as="geometry"/>
                </mxCell>
                <mxCell id="227" value="8" style="ellipse;whiteSpace=wrap;html=1;aspect=fixed;fontSize=15;strokeColor=#000000;fontColor=#000000;fillColor=#FFFFFF;" vertex="1" parent="1">
                    <mxGeometry x="265" y="1140" width="30" height="30" as="geometry"/>
                </mxCell>
                <mxCell id="228" value="7" style="ellipse;whiteSpace=wrap;html=1;aspect=fixed;fontSize=15;strokeColor=#b85450;fillColor=#990000;fontColor=#000000;" vertex="1" parent="1">
                    <mxGeometry x="315" y="1140" width="30" height="30" as="geometry"/>
                </mxCell>
                <mxCell id="229" value="0" style="whiteSpace=wrap;html=1;aspect=fixed;strokeColor=#000000;strokeWidth=1;fontSize=14;fontColor=#000000;fillColor=#FFFFFF;" vertex="1" parent="1">
                    <mxGeometry x="410" y="1140" width="30" height="30" as="geometry"/>
                </mxCell>
                <mxCell id="230" value="3" style="whiteSpace=wrap;html=1;aspect=fixed;strokeColor=#000000;strokeWidth=1;fontSize=14;fontColor=#000000;fillColor=#FFFFFF;" vertex="1" parent="1">
                    <mxGeometry x="440" y="1140" width="30" height="30" as="geometry"/>
                </mxCell>
                <mxCell id="231" value="2" style="whiteSpace=wrap;html=1;aspect=fixed;strokeColor=#000000;strokeWidth=1;fontSize=14;fontColor=#000000;fillColor=#FF0000;" vertex="1" parent="1">
                    <mxGeometry x="470" y="1140" width="30" height="30" as="geometry"/>
                </mxCell>
                <mxCell id="232" value="5" style="whiteSpace=wrap;html=1;aspect=fixed;strokeColor=#000000;strokeWidth=1;fontSize=14;fontColor=#000000;fillColor=#FFFFFF;" vertex="1" parent="1">
                    <mxGeometry x="500" y="1140" width="30" height="30" as="geometry"/>
                </mxCell>
                <mxCell id="233" value="6" style="whiteSpace=wrap;html=1;aspect=fixed;strokeColor=#000000;strokeWidth=1;fontSize=14;fontColor=#000000;fillColor=#FFFFFF;" vertex="1" parent="1">
                    <mxGeometry x="530" y="1140" width="30" height="30" as="geometry"/>
                </mxCell>
                <mxCell id="234" value="4" style="whiteSpace=wrap;html=1;aspect=fixed;strokeColor=#000000;strokeWidth=1;fontSize=14;fontColor=#000000;fillColor=#FFFFFF;" vertex="1" parent="1">
                    <mxGeometry x="560" y="1140" width="30" height="30" as="geometry"/>
                </mxCell>
                <mxCell id="235" value="1" style="whiteSpace=wrap;html=1;aspect=fixed;strokeColor=#000000;strokeWidth=1;fontSize=14;fillColor=#FF6666;fontColor=#000000;" vertex="1" parent="1">
                    <mxGeometry x="590" y="1140" width="30" height="30" as="geometry"/>
                </mxCell>
                <mxCell id="236" value="9" style="whiteSpace=wrap;html=1;aspect=fixed;strokeColor=#000000;strokeWidth=1;fontSize=14;fontColor=#000000;fillColor=#FFFFFF;" vertex="1" parent="1">
                    <mxGeometry x="620" y="1140" width="30" height="30" as="geometry"/>
                </mxCell>
                <mxCell id="237" value="14" style="whiteSpace=wrap;html=1;aspect=fixed;strokeColor=#000000;strokeWidth=1;fontSize=14;fontColor=#000000;fillColor=#FFFFFF;" vertex="1" parent="1">
                    <mxGeometry x="650" y="1140" width="30" height="30" as="geometry"/>
                </mxCell>
                <mxCell id="238" value="11" style="whiteSpace=wrap;html=1;aspect=fixed;strokeColor=#000000;strokeWidth=1;fontSize=14;fontColor=#000000;fillColor=#FFFFFF;" vertex="1" parent="1">
                    <mxGeometry x="680" y="1140" width="30" height="30" as="geometry"/>
                </mxCell>
                <mxCell id="239" value="10" style="whiteSpace=wrap;html=1;aspect=fixed;strokeColor=#000000;strokeWidth=1;fontSize=14;fontColor=#000000;fillColor=#FFFFFF;" vertex="1" parent="1">
                    <mxGeometry x="710" y="1140" width="30" height="30" as="geometry"/>
                </mxCell>
                <mxCell id="240" value="15" style="whiteSpace=wrap;html=1;aspect=fixed;strokeColor=#000000;strokeWidth=1;fontSize=14;fontColor=#000000;fillColor=#FFFFFF;" vertex="1" parent="1">
                    <mxGeometry x="740" y="1140" width="30" height="30" as="geometry"/>
                </mxCell>
                <mxCell id="241" value="8" style="whiteSpace=wrap;html=1;aspect=fixed;strokeColor=#000000;strokeWidth=1;fontSize=14;fontColor=#000000;fillColor=#FFFFFF;" vertex="1" parent="1">
                    <mxGeometry x="770" y="1140" width="30" height="30" as="geometry"/>
                </mxCell>
                <mxCell id="242" value="7" style="whiteSpace=wrap;html=1;aspect=fixed;strokeColor=#000000;strokeWidth=1;fontSize=14;fillColor=#990000;fontColor=#660000;" vertex="1" parent="1">
                    <mxGeometry x="800" y="1140" width="30" height="30" as="geometry"/>
                </mxCell>
                <mxCell id="243" value="bubble up" style="endArrow=classic;html=1;strokeColor=#000000;fontSize=15;fontColor=#000000;labelBackgroundColor=#FFFFFF;" edge="1" parent="1">
                    <mxGeometry width="50" height="50" relative="1" as="geometry">
                        <mxPoint x="380" y="1190" as="sourcePoint"/>
                        <mxPoint x="380" y="1300" as="targetPoint"/>
                    </mxGeometry>
                </mxCell>
                <mxCell id="285" value="" style="endArrow=none;html=1;fontSize=15;strokeColor=#000000;fontColor=#000000;" edge="1" parent="1">
                    <mxGeometry width="50" height="50" relative="1" as="geometry">
                        <mxPoint x="105" y="1349" as="sourcePoint"/>
                        <mxPoint x="155" y="1389" as="targetPoint"/>
                    </mxGeometry>
                </mxCell>
                <mxCell id="286" value="" style="endArrow=none;html=1;fontSize=15;strokeColor=#000000;fontColor=#000000;" edge="1" parent="1">
                    <mxGeometry width="50" height="50" relative="1" as="geometry">
                        <mxPoint x="305" y="1349" as="sourcePoint"/>
                        <mxPoint x="255" y="1389" as="targetPoint"/>
                    </mxGeometry>
                </mxCell>
                <mxCell id="287" value="" style="endArrow=none;html=1;fontSize=15;strokeColor=#000000;fontColor=#000000;startArrow=none;" edge="1" parent="1" source="300">
                    <mxGeometry width="50" height="50" relative="1" as="geometry">
                        <mxPoint x="305" y="1349" as="sourcePoint"/>
                        <mxPoint x="355" y="1389" as="targetPoint"/>
                    </mxGeometry>
                </mxCell>
                <mxCell id="288" value="" style="endArrow=none;html=1;fontSize=15;strokeColor=#000000;fontColor=#000000;startArrow=none;" edge="1" parent="1" source="300">
                    <mxGeometry width="50" height="50" relative="1" as="geometry">
                        <mxPoint x="330" y="1439" as="sourcePoint"/>
                        <mxPoint x="355" y="1389" as="targetPoint"/>
                    </mxGeometry>
                </mxCell>
                <mxCell id="289" value="" style="endArrow=none;html=1;fontSize=15;strokeColor=#000000;fontColor=#000000;" edge="1" parent="1">
                    <mxGeometry width="50" height="50" relative="1" as="geometry">
                        <mxPoint x="280" y="1439" as="sourcePoint"/>
                        <mxPoint x="255" y="1389" as="targetPoint"/>
                    </mxGeometry>
                </mxCell>
                <mxCell id="290" value="" style="endArrow=none;html=1;fontSize=15;strokeColor=#000000;fontColor=#000000;" edge="1" parent="1">
                    <mxGeometry width="50" height="50" relative="1" as="geometry">
                        <mxPoint x="230" y="1439" as="sourcePoint"/>
                        <mxPoint x="255" y="1389" as="targetPoint"/>
                    </mxGeometry>
                </mxCell>
                <mxCell id="291" value="" style="endArrow=none;html=1;fontSize=15;strokeColor=#000000;fontColor=#000000;" edge="1" parent="1">
                    <mxGeometry width="50" height="50" relative="1" as="geometry">
                        <mxPoint x="180" y="1439" as="sourcePoint"/>
                        <mxPoint x="155" y="1389" as="targetPoint"/>
                    </mxGeometry>
                </mxCell>
                <mxCell id="292" value="" style="endArrow=none;html=1;fontSize=15;strokeColor=#000000;fontColor=#000000;" edge="1" parent="1">
                    <mxGeometry width="50" height="50" relative="1" as="geometry">
                        <mxPoint x="130" y="1439" as="sourcePoint"/>
                        <mxPoint x="155" y="1389" as="targetPoint"/>
                    </mxGeometry>
                </mxCell>
                <mxCell id="293" value="" style="endArrow=none;html=1;fontSize=15;strokeColor=#000000;fontColor=#000000;" edge="1" parent="1">
                    <mxGeometry width="50" height="50" relative="1" as="geometry">
                        <mxPoint x="80" y="1439" as="sourcePoint"/>
                        <mxPoint x="55" y="1389" as="targetPoint"/>
                    </mxGeometry>
                </mxCell>
                <mxCell id="294" value="" style="endArrow=none;html=1;fontSize=15;strokeColor=#000000;fontColor=#000000;" edge="1" parent="1">
                    <mxGeometry width="50" height="50" relative="1" as="geometry">
                        <mxPoint x="30" y="1439" as="sourcePoint"/>
                        <mxPoint x="55" y="1389" as="targetPoint"/>
                    </mxGeometry>
                </mxCell>
                <mxCell id="295" value="" style="endArrow=none;html=1;fontSize=15;strokeColor=#000000;fontColor=#000000;" edge="1" parent="1">
                    <mxGeometry width="50" height="50" relative="1" as="geometry">
                        <mxPoint x="105" y="1349" as="sourcePoint"/>
                        <mxPoint x="55" y="1389" as="targetPoint"/>
                    </mxGeometry>
                </mxCell>
                <mxCell id="296" value="" style="endArrow=none;html=1;fontSize=15;strokeColor=#000000;fontColor=#000000;" edge="1" parent="1">
                    <mxGeometry width="50" height="50" relative="1" as="geometry">
                        <mxPoint x="105" y="1349" as="sourcePoint"/>
                        <mxPoint x="205" y="1319" as="targetPoint"/>
                    </mxGeometry>
                </mxCell>
                <mxCell id="297" value="" style="endArrow=none;html=1;fontSize=15;strokeColor=#000000;fontColor=#000000;" edge="1" parent="1">
                    <mxGeometry width="50" height="50" relative="1" as="geometry">
                        <mxPoint x="305" y="1349" as="sourcePoint"/>
                        <mxPoint x="205" y="1319" as="targetPoint"/>
                    </mxGeometry>
                </mxCell>
                <mxCell id="298" value="3" style="ellipse;whiteSpace=wrap;html=1;aspect=fixed;fontSize=15;strokeColor=#000000;fontColor=#000000;fillColor=#FFFFFF;" vertex="1" parent="1">
                    <mxGeometry x="90" y="1334" width="30" height="30" as="geometry"/>
                </mxCell>
                <mxCell id="299" value="0" style="ellipse;whiteSpace=wrap;html=1;aspect=fixed;fontSize=15;strokeColor=#000000;fillColor=#FFCCCC;fontColor=#000000;" vertex="1" parent="1">
                    <mxGeometry x="190" y="1304" width="30" height="30" as="geometry"/>
                </mxCell>
                <mxCell id="301" value="5" style="ellipse;whiteSpace=wrap;html=1;aspect=fixed;fontSize=15;strokeColor=#000000;fontColor=#000000;fillColor=#FFFFFF;" vertex="1" parent="1">
                    <mxGeometry x="40" y="1374" width="30" height="30" as="geometry"/>
                </mxCell>
                <mxCell id="302" value="6" style="ellipse;whiteSpace=wrap;html=1;aspect=fixed;fontSize=15;strokeColor=#000000;fontColor=#000000;fillColor=#FFFFFF;" vertex="1" parent="1">
                    <mxGeometry x="140" y="1374" width="30" height="30" as="geometry"/>
                </mxCell>
                <mxCell id="303" value="4" style="ellipse;whiteSpace=wrap;html=1;aspect=fixed;fontSize=15;strokeColor=#000000;fontColor=#000000;fillColor=#FFFFFF;" vertex="1" parent="1">
                    <mxGeometry x="240" y="1374" width="30" height="30" as="geometry"/>
                </mxCell>
                <mxCell id="305" value="9" style="ellipse;whiteSpace=wrap;html=1;aspect=fixed;fontSize=15;strokeColor=#000000;fontColor=#000000;fillColor=#FFFFFF;" vertex="1" parent="1">
                    <mxGeometry x="15" y="1424" width="30" height="30" as="geometry"/>
                </mxCell>
                <mxCell id="306" value="14" style="ellipse;whiteSpace=wrap;html=1;aspect=fixed;fontSize=15;strokeColor=#000000;fontColor=#000000;fillColor=#FFFFFF;" vertex="1" parent="1">
                    <mxGeometry x="65" y="1424" width="30" height="30" as="geometry"/>
                </mxCell>
                <mxCell id="307" value="11" style="ellipse;whiteSpace=wrap;html=1;aspect=fixed;fontSize=15;strokeColor=#000000;fontColor=#000000;fillColor=#FFFFFF;" vertex="1" parent="1">
                    <mxGeometry x="115" y="1424" width="30" height="30" as="geometry"/>
                </mxCell>
                <mxCell id="308" value="10" style="ellipse;whiteSpace=wrap;html=1;aspect=fixed;fontSize=15;strokeColor=#000000;fontColor=#000000;fillColor=#FFFFFF;" vertex="1" parent="1">
                    <mxGeometry x="165" y="1424" width="30" height="30" as="geometry"/>
                </mxCell>
                <mxCell id="309" value="15" style="ellipse;whiteSpace=wrap;html=1;aspect=fixed;fontSize=15;strokeColor=#000000;fontColor=#000000;fillColor=#FFFFFF;" vertex="1" parent="1">
                    <mxGeometry x="215" y="1424" width="30" height="30" as="geometry"/>
                </mxCell>
                <mxCell id="310" value="8" style="ellipse;whiteSpace=wrap;html=1;aspect=fixed;fontSize=15;strokeColor=#000000;fontColor=#000000;fillColor=#FFFFFF;" vertex="1" parent="1">
                    <mxGeometry x="265" y="1424" width="30" height="30" as="geometry"/>
                </mxCell>
                <mxCell id="312" value="0" style="whiteSpace=wrap;html=1;aspect=fixed;strokeColor=#000000;strokeWidth=1;fontSize=14;fontColor=#000000;fillColor=#FFCCCC;" vertex="1" parent="1">
                    <mxGeometry x="410" y="1424" width="30" height="30" as="geometry"/>
                </mxCell>
                <mxCell id="313" value="3" style="whiteSpace=wrap;html=1;aspect=fixed;strokeColor=#000000;strokeWidth=1;fontSize=14;fontColor=#000000;fillColor=#FFFFFF;" vertex="1" parent="1">
                    <mxGeometry x="440" y="1424" width="30" height="30" as="geometry"/>
                </mxCell>
                <mxCell id="314" value="2" style="whiteSpace=wrap;html=1;aspect=fixed;strokeColor=#000000;strokeWidth=1;fontSize=14;fontColor=#000000;fillColor=#FF0000;" vertex="1" parent="1">
                    <mxGeometry x="590" y="1424" width="30" height="30" as="geometry"/>
                </mxCell>
                <mxCell id="315" value="5" style="whiteSpace=wrap;html=1;aspect=fixed;strokeColor=#000000;strokeWidth=1;fontSize=14;fontColor=#000000;fillColor=#FFFFFF;" vertex="1" parent="1">
                    <mxGeometry x="500" y="1424" width="30" height="30" as="geometry"/>
                </mxCell>
                <mxCell id="316" value="6" style="whiteSpace=wrap;html=1;aspect=fixed;strokeColor=#000000;strokeWidth=1;fontSize=14;fontColor=#000000;fillColor=#FFFFFF;" vertex="1" parent="1">
                    <mxGeometry x="530" y="1424" width="30" height="30" as="geometry"/>
                </mxCell>
                <mxCell id="317" value="4" style="whiteSpace=wrap;html=1;aspect=fixed;strokeColor=#000000;strokeWidth=1;fontSize=14;fontColor=#000000;fillColor=#FFFFFF;" vertex="1" parent="1">
                    <mxGeometry x="560" y="1424" width="30" height="30" as="geometry"/>
                </mxCell>
                <mxCell id="318" value="1" style="whiteSpace=wrap;html=1;aspect=fixed;strokeColor=#000000;strokeWidth=1;fontSize=14;fillColor=#FF6666;fontColor=#000000;" vertex="1" parent="1">
                    <mxGeometry x="470" y="1424" width="30" height="30" as="geometry"/>
                </mxCell>
                <mxCell id="319" value="9" style="whiteSpace=wrap;html=1;aspect=fixed;strokeColor=#000000;strokeWidth=1;fontSize=14;fontColor=#000000;fillColor=#FFFFFF;" vertex="1" parent="1">
                    <mxGeometry x="620" y="1424" width="30" height="30" as="geometry"/>
                </mxCell>
                <mxCell id="320" value="14" style="whiteSpace=wrap;html=1;aspect=fixed;strokeColor=#000000;strokeWidth=1;fontSize=14;fontColor=#000000;fillColor=#FFFFFF;" vertex="1" parent="1">
                    <mxGeometry x="650" y="1424" width="30" height="30" as="geometry"/>
                </mxCell>
                <mxCell id="321" value="11" style="whiteSpace=wrap;html=1;aspect=fixed;strokeColor=#000000;strokeWidth=1;fontSize=14;fontColor=#000000;fillColor=#FFFFFF;" vertex="1" parent="1">
                    <mxGeometry x="680" y="1424" width="30" height="30" as="geometry"/>
                </mxCell>
                <mxCell id="322" value="10" style="whiteSpace=wrap;html=1;aspect=fixed;strokeColor=#000000;strokeWidth=1;fontSize=14;fontColor=#000000;fillColor=#FFFFFF;" vertex="1" parent="1">
                    <mxGeometry x="710" y="1424" width="30" height="30" as="geometry"/>
                </mxCell>
                <mxCell id="323" value="15" style="whiteSpace=wrap;html=1;aspect=fixed;strokeColor=#000000;strokeWidth=1;fontSize=14;fontColor=#000000;fillColor=#FFFFFF;" vertex="1" parent="1">
                    <mxGeometry x="740" y="1424" width="30" height="30" as="geometry"/>
                </mxCell>
                <mxCell id="324" value="8" style="whiteSpace=wrap;html=1;aspect=fixed;strokeColor=#000000;strokeWidth=1;fontSize=14;fontColor=#000000;fillColor=#FFFFFF;" vertex="1" parent="1">
                    <mxGeometry x="770" y="1424" width="30" height="30" as="geometry"/>
                </mxCell>
                <mxCell id="325" value="7" style="whiteSpace=wrap;html=1;aspect=fixed;strokeColor=#000000;strokeWidth=1;fontSize=14;fillColor=#990000;fontColor=#660000;" vertex="1" parent="1">
                    <mxGeometry x="800" y="1424" width="30" height="30" as="geometry"/>
                </mxCell>
                <mxCell id="326" value="" style="endArrow=none;html=1;fontSize=15;strokeColor=#000000;fontColor=#000000;startArrow=none;" edge="1" parent="1" source="304" target="300">
                    <mxGeometry width="50" height="50" relative="1" as="geometry">
                        <mxPoint x="305" y="1348.9999999999995" as="sourcePoint"/>
                        <mxPoint x="355" y="1388.9999999999995" as="targetPoint"/>
                    </mxGeometry>
                </mxCell>
                <mxCell id="327" value="" style="endArrow=none;html=1;fontSize=15;strokeColor=#000000;fontColor=#000000;" edge="1" parent="1" target="304">
                    <mxGeometry width="50" height="50" relative="1" as="geometry">
                        <mxPoint x="305" y="1348.9999999999995" as="sourcePoint"/>
                        <mxPoint x="334.39339828218294" y="1378.3933982821827" as="targetPoint"/>
                    </mxGeometry>
                </mxCell>
                <mxCell id="304" value="1" style="ellipse;whiteSpace=wrap;html=1;aspect=fixed;fontSize=15;strokeColor=#000000;fillColor=#FF6666;fontColor=#000000;" vertex="1" parent="1">
                    <mxGeometry x="290" y="1334" width="30" height="30" as="geometry"/>
                </mxCell>
                <mxCell id="328" value="" style="endArrow=none;html=1;fontSize=15;strokeColor=#000000;fontColor=#000000;" edge="1" parent="1" target="300">
                    <mxGeometry width="50" height="50" relative="1" as="geometry">
                        <mxPoint x="330" y="1438.9999999999995" as="sourcePoint"/>
                        <mxPoint x="355" y="1388.9999999999995" as="targetPoint"/>
                    </mxGeometry>
                </mxCell>
                <mxCell id="300" value="2" style="ellipse;whiteSpace=wrap;html=1;aspect=fixed;fontSize=15;strokeColor=#000000;fontColor=#000000;fillColor=#FF0000;" vertex="1" parent="1">
                    <mxGeometry x="340" y="1374" width="30" height="30" as="geometry"/>
                </mxCell>
                <mxCell id="311" value="7" style="ellipse;whiteSpace=wrap;html=1;aspect=fixed;fontSize=15;strokeColor=#000000;fillColor=#990000;fontColor=#000000;" vertex="1" parent="1">
                    <mxGeometry x="315" y="1424" width="30" height="30" as="geometry"/>
                </mxCell>
                <mxCell id="331" value="2" style="ellipse;whiteSpace=wrap;html=1;aspect=fixed;fontSize=15;strokeColor=#000000;fontColor=#000000;fillColor=#FF0000;" vertex="1" parent="1">
                    <mxGeometry x="290" y="1050" width="30" height="30" as="geometry"/>
                </mxCell>
                <mxCell id="332" value="2" style="whiteSpace=wrap;html=1;aspect=fixed;strokeColor=#000000;strokeWidth=1;fontSize=14;fontColor=#000000;fillColor=#FF0000;" vertex="1" parent="1">
                    <mxGeometry x="470" y="1140" width="30" height="30" as="geometry"/>
                </mxCell>
                <mxCell id="333" value="2" style="ellipse;whiteSpace=wrap;html=1;aspect=fixed;fontSize=15;strokeColor=#000000;fontColor=#000000;fillColor=#FF0000;" vertex="1" parent="1">
                    <mxGeometry x="340" y="1374" width="30" height="30" as="geometry"/>
                </mxCell>
                <mxCell id="334" value="" style="line;strokeWidth=1;html=1;fontColor=#000000;dashed=1;strokeColor=#FFFFFF;fillColor=#FFFFFF;" vertex="1" parent="1">
                    <mxGeometry x="5" y="1500" width="835" height="10" as="geometry"/>
                </mxCell>
                <mxCell id="340" style="edgeStyle=none;html=1;exitX=0.5;exitY=1;exitDx=0;exitDy=0;labelBackgroundColor=#FFFFFF;strokeColor=#E1D5E7;fontSize=13;fontColor=#000000;dashed=1;" edge="1" parent="1" source="338">
                    <mxGeometry relative="1" as="geometry">
                        <mxPoint x="370" y="834" as="targetPoint"/>
                    </mxGeometry>
                </mxCell>
                <mxCell id="338" value="父节点" style="text;html=1;strokeColor=#9673a6;fillColor=#e1d5e7;align=center;verticalAlign=middle;whiteSpace=wrap;rounded=0;strokeWidth=1;fontSize=13;fontColor=#000000;" vertex="1" parent="1">
                    <mxGeometry x="380" y="780" width="50" height="30" as="geometry"/>
                </mxCell>
                <mxCell id="341" style="edgeStyle=none;html=1;exitX=0.5;exitY=1;exitDx=0;exitDy=0;labelBackgroundColor=#FFFFFF;strokeColor=#E1D5E7;fontSize=13;fontColor=#000000;dashed=1;" edge="1" source="342" parent="1">
                    <mxGeometry relative="1" as="geometry">
                        <mxPoint x="320" y="1050" as="targetPoint"/>
                    </mxGeometry>
                </mxCell>
                <mxCell id="342" value="父节点" style="text;html=1;strokeColor=#9673a6;fillColor=#e1d5e7;align=center;verticalAlign=middle;whiteSpace=wrap;rounded=0;strokeWidth=1;fontSize=13;fontColor=#000000;" vertex="1" parent="1">
                    <mxGeometry x="322" y="998" width="50" height="30" as="geometry"/>
                </mxCell>
                <mxCell id="343" style="edgeStyle=none;html=1;exitX=0.5;exitY=1;exitDx=0;exitDy=0;labelBackgroundColor=#FFFFFF;strokeColor=#E1D5E7;fontSize=13;fontColor=#000000;dashed=1;" edge="1" source="344" parent="1">
                    <mxGeometry relative="1" as="geometry">
                        <mxPoint x="218" y="1298" as="targetPoint"/>
                    </mxGeometry>
                </mxCell>
                <mxCell id="344" value="父节点" style="text;html=1;strokeColor=#9673a6;fillColor=#e1d5e7;align=center;verticalAlign=middle;whiteSpace=wrap;rounded=0;strokeWidth=1;fontSize=13;fontColor=#000000;" vertex="1" parent="1">
                    <mxGeometry x="215" y="1241" width="50" height="30" as="geometry"/>
                </mxCell>
            </root>
        </mxGraphModel>
    </diagram>
</mxfile>